<svg width="32" height="32" viewBox="0 0 32 32" fill="none" xmlns="http://www.w3.org/2000/svg">
<path d="M27.3246 4.68503C24.3068 1.66568 20.2938 0.00160008 16.0184 0C7.20836 0 0.038402 7.16676 0.0352019 15.9768C0.0336018 18.7929 0.769638 21.5419 2.16811 23.9644L0 32.0016L8.37322 30.0223C10.7077 31.296 13.3351 31.9664 16.0104 31.968H16.0168C24.8252 31.968 31.9952 24.7996 32 15.9912C32.0032 11.7206 30.3423 7.70598 27.3246 4.68503ZM23.838 21.6875C23.5052 22.6203 21.8747 23.5196 21.1419 23.5852C20.409 23.6524 19.7226 23.9164 16.3496 22.5867C12.2902 20.9866 9.72688 16.8248 9.52847 16.5592C9.32846 16.292 7.89799 14.3943 7.89799 12.4294C7.89799 10.4645 8.93004 9.49807 9.29646 9.09965C9.66288 8.69963 10.0949 8.60043 10.3621 8.60043C10.6277 8.60043 10.8949 8.60043 11.127 8.61003C11.4118 8.62123 11.727 8.63563 12.0262 9.29966C12.3814 10.0901 13.1575 12.0646 13.2567 12.2646C13.3559 12.4646 13.4231 12.6982 13.2903 12.9638C13.1575 13.2295 13.0903 13.3959 12.8918 13.6295C12.6918 13.8631 12.4726 14.1495 12.2934 14.3287C12.0934 14.5271 11.8854 14.7447 12.1174 15.1432C12.351 15.5432 13.1511 16.8504 14.3383 17.9081C15.8648 19.2682 17.1497 19.689 17.5497 19.8906C17.9497 20.0906 18.1817 20.057 18.4153 19.7898C18.6489 19.5242 19.4138 18.6249 19.6794 18.2249C19.945 17.8249 20.2122 17.8921 20.5786 18.0249C20.945 18.1577 22.9083 19.1242 23.3068 19.3242C23.7068 19.5242 23.9724 19.6234 24.0716 19.7898C24.1708 19.9546 24.1708 20.7546 23.838 21.6875Z" fill="white"/>
</svg>
