<svg width="48" height="48" viewBox="0 0 48 48"  xmlns="http://www.w3.org/2000/svg" fill="white">
<path d="M0 0V48H48V0H0ZM40 5.33333C41.472 5.33333 42.6667 6.528 42.6667 8C42.6667 9.472 41.472 10.6667 40 10.6667C38.528 10.6667 37.3333 9.472 37.3333 8C37.3333 6.528 38.528 5.33333 40 5.33333ZM24 10.6667C31.3627 10.6667 37.3333 16.6373 37.3333 24C37.3333 31.3627 31.3627 37.3333 24 37.3333C16.6373 37.3333 10.6667 31.3627 10.6667 24C10.6667 16.6373 16.6373 10.6667 24 10.6667ZM24 16C19.5817 16 16 19.5817 16 24C16 28.4183 19.5817 32 24 32C28.4183 32 32 28.4183 32 24C32 19.5817 28.4183 16 24 16Z" fill="white"/>
</svg>
